<svg xmlns="http://www.w3.org/2000/svg" fill="none" viewBox="0 7.18 753 341.82">
<path d="M12 9.248V11.96H5.016V16.256H10.368V18.92H5.016V26H1.656V9.248H12ZM18.4626 14.768C18.8946 14.064 19.4546 13.512 20.1426 13.112C20.8466 12.712 21.6466 12.512 22.5426 12.512V16.04H21.6546C20.5986 16.04 19.7986 16.288 19.2546 16.784C18.7266 17.28 18.4626 18.144 18.4626 19.376V26H15.1026V12.704H18.4626V14.768ZM31.4297 26.216C30.1497 26.216 28.9977 25.936 27.9737 25.376C26.9497 24.8 26.1417 23.992 25.5497 22.952C24.9737 21.912 24.6857 20.712 24.6857 19.352C24.6857 17.992 24.9817 16.792 25.5737 15.752C26.1817 14.712 27.0057 13.912 28.0457 13.352C29.0857 12.776 30.2457 12.488 31.5257 12.488C32.8057 12.488 33.9657 12.776 35.0057 13.352C36.0457 13.912 36.8617 14.712 37.4537 15.752C38.0617 16.792 38.3657 17.992 38.3657 19.352C38.3657 20.712 38.0537 21.912 37.4297 22.952C36.8217 23.992 35.9897 24.8 34.9337 25.376C33.8937 25.936 32.7257 26.216 31.4297 26.216ZM31.4297 23.288C32.0377 23.288 32.6057 23.144 33.1337 22.856C33.6777 22.552 34.1097 22.104 34.4297 21.512C34.7497 20.92 34.9097 20.2 34.9097 19.352C34.9097 18.088 34.5737 17.12 33.9017 16.448C33.2457 15.76 32.4377 15.416 31.4777 15.416C30.5177 15.416 29.7097 15.76 29.0537 16.448C28.4137 17.12 28.0937 18.088 28.0937 19.352C28.0937 20.616 28.4057 21.592 29.0297 22.28C29.6697 22.952 30.4697 23.288 31.4297 23.288ZM48.9184 12.512C50.5024 12.512 51.7824 13.016 52.7584 14.024C53.7344 15.016 54.2224 16.408 54.2224 18.2V26H50.8624V18.656C50.8624 17.6 50.5984 16.792 50.0704 16.232C49.5424 15.656 48.8224 15.368 47.9104 15.368C46.9824 15.368 46.2464 15.656 45.7024 16.232C45.1744 16.792 44.9104 17.6 44.9104 18.656V26H41.5504V12.704H44.9104V14.36C45.3584 13.784 45.9264 13.336 46.6144 13.016C47.3184 12.68 48.0864 12.512 48.9184 12.512ZM62.0496 15.464V21.896C62.0496 22.344 62.1536 22.672 62.3616 22.88C62.5856 23.072 62.9536 23.168 63.4656 23.168H65.0256V26H62.9136C60.0816 26 58.6656 24.624 58.6656 21.872V15.464H57.0816V12.704H58.6656V9.416H62.0496V12.704H65.0256V15.464H62.0496ZM80.5222 19.064C80.5222 19.544 80.4902 19.976 80.4262 20.36H70.7062C70.7862 21.32 71.1222 22.072 71.7142 22.616C72.3062 23.16 73.0342 23.432 73.8982 23.432C75.1462 23.432 76.0342 22.896 76.5622 21.824H80.1862C79.8022 23.104 79.0662 24.16 77.9782 24.992C76.8902 25.808 75.5542 26.216 73.9702 26.216C72.6902 26.216 71.5382 25.936 70.5142 25.376C69.5062 24.8 68.7142 23.992 68.1382 22.952C67.5782 21.912 67.2982 20.712 67.2982 19.352C67.2982 17.976 67.5782 16.768 68.1382 15.728C68.6982 14.688 69.4822 13.888 70.4902 13.328C71.4982 12.768 72.6582 12.488 73.9702 12.488C75.2342 12.488 76.3622 12.76 77.3542 13.304C78.3622 13.848 79.1382 14.624 79.6822 15.632C80.2422 16.624 80.5222 17.768 80.5222 19.064ZM77.0422 18.104C77.0262 17.24 76.7142 16.552 76.1062 16.04C75.4982 15.512 74.7542 15.248 73.8742 15.248C73.0422 15.248 72.3382 15.504 71.7622 16.016C71.2022 16.512 70.8582 17.208 70.7302 18.104H77.0422ZM91.0628 12.512C92.6468 12.512 93.9268 13.016 94.9028 14.024C95.8787 15.016 96.3667 16.408 96.3667 18.2V26H93.0068V18.656C93.0068 17.6 92.7428 16.792 92.2148 16.232C91.6868 15.656 90.9668 15.368 90.0548 15.368C89.1268 15.368 88.3908 15.656 87.8468 16.232C87.3187 16.792 87.0547 17.6 87.0547 18.656V26H83.6947V12.704H87.0547V14.36C87.5028 13.784 88.0707 13.336 88.7587 13.016C89.4627 12.68 90.2307 12.512 91.0628 12.512ZM99.4179 19.304C99.4179 17.96 99.6819 16.768 100.21 15.728C100.754 14.688 101.49 13.888 102.418 13.328C103.346 12.768 104.378 12.488 105.514 12.488C106.378 12.488 107.202 12.68 107.986 13.064C108.77 13.432 109.394 13.928 109.858 14.552V8.24H113.266V26H109.858V24.032C109.442 24.688 108.858 25.216 108.106 25.616C107.354 26.016 106.482 26.216 105.49 26.216C104.37 26.216 103.346 25.928 102.418 25.352C101.49 24.776 100.754 23.968 100.21 22.928C99.6819 21.872 99.4179 20.664 99.4179 19.304ZM109.882 19.352C109.882 18.536 109.722 17.84 109.402 17.264C109.082 16.672 108.65 16.224 108.106 15.92C107.562 15.6 106.978 15.44 106.354 15.44C105.73 15.44 105.154 15.592 104.626 15.896C104.098 16.2 103.666 16.648 103.33 17.24C103.01 17.816 102.85 18.504 102.85 19.304C102.85 20.104 103.01 20.808 103.33 21.416C103.666 22.008 104.098 22.464 104.626 22.784C105.17 23.104 105.746 23.264 106.354 23.264C106.978 23.264 107.562 23.112 108.106 22.808C108.65 22.488 109.082 22.04 109.402 21.464C109.722 20.872 109.882 20.168 109.882 19.352ZM133.978 22.808H127.306L126.202 26H122.674L128.698 9.224H132.61L138.634 26H135.082L133.978 22.808ZM133.066 20.12L130.642 13.112L128.218 20.12H133.066ZM144.966 14.768C145.398 14.064 145.958 13.512 146.646 13.112C147.35 12.712 148.15 12.512 149.046 12.512V16.04H148.158C147.102 16.04 146.302 16.288 145.758 16.784C145.23 17.28 144.966 18.144 144.966 19.376V26H141.606V12.704H144.966V14.768ZM151.165 19.352C151.165 17.976 151.445 16.776 152.005 15.752C152.565 14.712 153.341 13.912 154.333 13.352C155.325 12.776 156.461 12.488 157.741 12.488C159.389 12.488 160.749 12.904 161.821 13.736C162.909 14.552 163.637 15.704 164.005 17.192H160.381C160.189 16.616 159.861 16.168 159.397 15.848C158.949 15.512 158.389 15.344 157.717 15.344C156.757 15.344 155.997 15.696 155.437 16.4C154.877 17.088 154.597 18.072 154.597 19.352C154.597 20.616 154.877 21.6 155.437 22.304C155.997 22.992 156.757 23.336 157.717 23.336C159.077 23.336 159.965 22.728 160.381 21.512H164.005C163.637 22.952 162.909 24.096 161.821 24.944C160.733 25.792 159.373 26.216 157.741 26.216C156.461 26.216 155.325 25.936 154.333 25.376C153.341 24.8 152.565 24 152.005 22.976C151.445 21.936 151.165 20.728 151.165 19.352ZM174.675 12.512C175.683 12.512 176.579 12.736 177.363 13.184C178.147 13.616 178.755 14.264 179.187 15.128C179.635 15.976 179.859 17 179.859 18.2V26H176.499V18.656C176.499 17.6 176.235 16.792 175.707 16.232C175.179 15.656 174.459 15.368 173.547 15.368C172.619 15.368 171.883 15.656 171.339 16.232C170.811 16.792 170.547 17.6 170.547 18.656V26H167.187V8.24H170.547V14.36C170.979 13.784 171.555 13.336 172.275 13.016C172.995 12.68 173.795 12.512 174.675 12.512ZM185.478 11.12C184.886 11.12 184.39 10.936 183.99 10.568C183.606 10.184 183.414 9.712 183.414 9.152C183.414 8.592 183.606 8.128 183.99 7.76C184.39 7.376 184.886 7.184 185.478 7.184C186.07 7.184 186.558 7.376 186.942 7.76C187.342 8.128 187.542 8.592 187.542 9.152C187.542 9.712 187.342 10.184 186.942 10.568C186.558 10.936 186.07 11.12 185.478 11.12ZM187.134 12.704V26H183.774V12.704H187.134ZM195.086 15.464V21.896C195.086 22.344 195.19 22.672 195.398 22.88C195.622 23.072 195.99 23.168 196.502 23.168H198.062V26H195.95C193.118 26 191.702 24.624 191.702 21.872V15.464H190.118V12.704H191.702V9.416H195.086V12.704H198.062V15.464H195.086ZM213.558 19.064C213.558 19.544 213.526 19.976 213.462 20.36H203.742C203.822 21.32 204.158 22.072 204.75 22.616C205.342 23.16 206.07 23.432 206.934 23.432C208.182 23.432 209.07 22.896 209.598 21.824H213.222C212.838 23.104 212.102 24.16 211.014 24.992C209.926 25.808 208.59 26.216 207.006 26.216C205.726 26.216 204.574 25.936 203.55 25.376C202.542 24.8 201.75 23.992 201.174 22.952C200.614 21.912 200.334 20.712 200.334 19.352C200.334 17.976 200.614 16.768 201.174 15.728C201.734 14.688 202.518 13.888 203.526 13.328C204.534 12.768 205.694 12.488 207.006 12.488C208.27 12.488 209.398 12.76 210.39 13.304C211.398 13.848 212.174 14.624 212.718 15.632C213.278 16.624 213.558 17.768 213.558 19.064ZM210.078 18.104C210.062 17.24 209.75 16.552 209.142 16.04C208.534 15.512 207.79 15.248 206.91 15.248C206.078 15.248 205.374 15.504 204.798 16.016C204.238 16.512 203.894 17.208 203.766 18.104H210.078ZM215.867 19.352C215.867 17.976 216.147 16.776 216.707 15.752C217.267 14.712 218.043 13.912 219.035 13.352C220.027 12.776 221.163 12.488 222.443 12.488C224.091 12.488 225.451 12.904 226.523 13.736C227.611 14.552 228.339 15.704 228.707 17.192H225.083C224.891 16.616 224.563 16.168 224.099 15.848C223.651 15.512 223.091 15.344 222.419 15.344C221.459 15.344 220.699 15.696 220.139 16.4C219.579 17.088 219.299 18.072 219.299 19.352C219.299 20.616 219.579 21.6 220.139 22.304C220.699 22.992 221.459 23.336 222.419 23.336C223.779 23.336 224.667 22.728 225.083 21.512H228.707C228.339 22.952 227.611 24.096 226.523 24.944C225.435 25.792 224.075 26.216 222.443 26.216C221.163 26.216 220.027 25.936 219.035 25.376C218.043 24.8 217.267 24 216.707 22.976C216.147 21.936 215.867 20.728 215.867 19.352ZM235.8 15.464V21.896C235.8 22.344 235.904 22.672 236.112 22.88C236.336 23.072 236.704 23.168 237.216 23.168H238.776V26H236.664C233.832 26 232.416 24.624 232.416 21.872V15.464H230.832V12.704H232.416V9.416H235.8V12.704H238.776V15.464H235.8ZM254.465 12.704V26H251.081V24.32C250.649 24.896 250.081 25.352 249.377 25.688C248.689 26.008 247.937 26.168 247.121 26.168C246.081 26.168 245.161 25.952 244.361 25.52C243.561 25.072 242.929 24.424 242.465 23.576C242.017 22.712 241.793 21.688 241.793 20.504V12.704H245.153V20.024C245.153 21.08 245.417 21.896 245.945 22.472C246.473 23.032 247.193 23.312 248.105 23.312C249.033 23.312 249.761 23.032 250.289 22.472C250.817 21.896 251.081 21.08 251.081 20.024V12.704H254.465ZM261.86 14.768C262.292 14.064 262.852 13.512 263.54 13.112C264.244 12.712 265.044 12.512 265.94 12.512V16.04H265.052C263.996 16.04 263.196 16.288 262.652 16.784C262.124 17.28 261.86 18.144 261.86 19.376V26H258.5V12.704H261.86V14.768ZM281.283 19.064C281.283 19.544 281.251 19.976 281.187 20.36H271.467C271.547 21.32 271.883 22.072 272.475 22.616C273.067 23.16 273.795 23.432 274.659 23.432C275.907 23.432 276.795 22.896 277.323 21.824H280.947C280.563 23.104 279.827 24.16 278.739 24.992C277.651 25.808 276.315 26.216 274.731 26.216C273.451 26.216 272.299 25.936 271.275 25.376C270.267 24.8 269.475 23.992 268.899 22.952C268.339 21.912 268.059 20.712 268.059 19.352C268.059 17.976 268.339 16.768 268.899 15.728C269.459 14.688 270.243 13.888 271.251 13.328C272.259 12.768 273.419 12.488 274.731 12.488C275.995 12.488 277.123 12.76 278.115 13.304C279.123 13.848 279.899 14.624 280.443 15.632C281.003 16.624 281.283 17.768 281.283 19.064ZM277.803 18.104C277.787 17.24 277.475 16.552 276.867 16.04C276.259 15.512 275.515 15.248 274.635 15.248C273.803 15.248 273.099 15.504 272.523 16.016C271.963 16.512 271.619 17.208 271.491 18.104H277.803ZM303.782 26L301.958 24.2C300.406 25.592 298.51 26.288 296.27 26.288C295.038 26.288 293.95 26.08 293.006 25.664C292.078 25.232 291.358 24.632 290.846 23.864C290.334 23.08 290.078 22.176 290.078 21.152C290.078 20.048 290.39 19.056 291.014 18.176C291.638 17.296 292.558 16.584 293.774 16.04C293.342 15.512 293.03 15.008 292.838 14.528C292.646 14.032 292.55 13.504 292.55 12.944C292.55 12.176 292.75 11.488 293.15 10.88C293.55 10.256 294.118 9.768 294.854 9.416C295.606 9.064 296.478 8.888 297.47 8.888C298.478 8.888 299.342 9.08 300.062 9.464C300.782 9.848 301.318 10.36 301.67 11C302.022 11.64 302.174 12.352 302.126 13.136H298.862C298.878 12.608 298.75 12.208 298.478 11.936C298.206 11.648 297.838 11.504 297.374 11.504C296.926 11.504 296.55 11.64 296.246 11.912C295.958 12.168 295.814 12.504 295.814 12.92C295.814 13.32 295.934 13.72 296.174 14.12C296.414 14.504 296.806 14.984 297.35 15.56L301.574 19.736C301.606 19.704 301.63 19.672 301.646 19.64C301.662 19.608 301.678 19.576 301.694 19.544L303.062 17.264H306.566L304.886 20.216C304.566 20.84 304.222 21.432 303.854 21.992L307.91 26H303.782ZM296.366 23.504C297.678 23.504 298.838 23.04 299.846 22.112L295.718 18.032C294.166 18.72 293.39 19.696 293.39 20.96C293.39 21.68 293.662 22.288 294.206 22.784C294.75 23.264 295.47 23.504 296.366 23.504ZM322.589 9.248C324.349 9.248 325.893 9.592 327.221 10.28C328.565 10.968 329.597 11.952 330.317 13.232C331.053 14.496 331.421 15.968 331.421 17.648C331.421 19.328 331.053 20.8 330.317 22.064C329.597 23.312 328.565 24.28 327.221 24.968C325.893 25.656 324.349 26 322.589 26H316.733V9.248H322.589ZM322.469 23.144C324.229 23.144 325.589 22.664 326.549 21.704C327.509 20.744 327.989 19.392 327.989 17.648C327.989 15.904 327.509 14.544 326.549 13.568C325.589 12.576 324.229 12.08 322.469 12.08H320.093V23.144H322.469ZM347.016 19.064C347.016 19.544 346.984 19.976 346.92 20.36H337.2C337.28 21.32 337.616 22.072 338.208 22.616C338.8 23.16 339.528 23.432 340.392 23.432C341.64 23.432 342.528 22.896 343.056 21.824H346.68C346.296 23.104 345.56 24.16 344.472 24.992C343.384 25.808 342.048 26.216 340.464 26.216C339.184 26.216 338.032 25.936 337.008 25.376C336 24.8 335.208 23.992 334.632 22.952C334.072 21.912 333.792 20.712 333.792 19.352C333.792 17.976 334.072 16.768 334.632 15.728C335.192 14.688 335.976 13.888 336.984 13.328C337.992 12.768 339.152 12.488 340.464 12.488C341.728 12.488 342.856 12.76 343.848 13.304C344.856 13.848 345.632 14.624 346.176 15.632C346.736 16.624 347.016 17.768 347.016 19.064ZM343.536 18.104C343.52 17.24 343.208 16.552 342.6 16.04C341.992 15.512 341.248 15.248 340.368 15.248C339.536 15.248 338.832 15.504 338.256 16.016C337.696 16.512 337.352 17.208 337.224 18.104H343.536ZM355.277 26.216C354.189 26.216 353.213 26.024 352.349 25.64C351.485 25.24 350.797 24.704 350.285 24.032C349.789 23.36 349.517 22.616 349.469 21.8H352.853C352.917 22.312 353.165 22.736 353.597 23.072C354.045 23.408 354.597 23.576 355.253 23.576C355.893 23.576 356.389 23.448 356.741 23.192C357.109 22.936 357.293 22.608 357.293 22.208C357.293 21.776 357.069 21.456 356.621 21.248C356.189 21.024 355.493 20.784 354.533 20.528C353.541 20.288 352.725 20.04 352.085 19.784C351.461 19.528 350.917 19.136 350.453 18.608C350.005 18.08 349.781 17.368 349.781 16.472C349.781 15.736 349.989 15.064 350.405 14.456C350.837 13.848 351.445 13.368 352.229 13.016C353.029 12.664 353.965 12.488 355.037 12.488C356.621 12.488 357.885 12.888 358.829 13.688C359.773 14.472 360.293 15.536 360.389 16.88H357.173C357.125 16.352 356.901 15.936 356.501 15.632C356.117 15.312 355.597 15.152 354.941 15.152C354.333 15.152 353.861 15.264 353.525 15.488C353.205 15.712 353.045 16.024 353.045 16.424C353.045 16.872 353.269 17.216 353.717 17.456C354.165 17.68 354.861 17.912 355.805 18.152C356.765 18.392 357.557 18.64 358.181 18.896C358.805 19.152 359.341 19.552 359.789 20.096C360.253 20.624 360.493 21.328 360.509 22.208C360.509 22.976 360.293 23.664 359.861 24.272C359.445 24.88 358.837 25.36 358.037 25.712C357.253 26.048 356.333 26.216 355.277 26.216ZM365.691 11.12C365.099 11.12 364.603 10.936 364.203 10.568C363.819 10.184 363.627 9.712 363.627 9.152C363.627 8.592 363.819 8.128 364.203 7.76C364.603 7.376 365.099 7.184 365.691 7.184C366.283 7.184 366.771 7.376 367.155 7.76C367.555 8.128 367.755 8.592 367.755 9.152C367.755 9.712 367.555 10.184 367.155 10.568C366.771 10.936 366.283 11.12 365.691 11.12ZM367.347 12.704V26H363.987V12.704H367.347ZM376.594 12.488C377.586 12.488 378.458 12.688 379.21 13.088C379.962 13.472 380.554 13.976 380.986 14.6V12.704H384.37V26.096C384.37 27.328 384.122 28.424 383.626 29.384C383.13 30.36 382.386 31.128 381.394 31.688C380.402 32.264 379.202 32.552 377.794 32.552C375.906 32.552 374.354 32.112 373.138 31.232C371.938 30.352 371.258 29.152 371.098 27.632H374.434C374.61 28.24 374.986 28.72 375.562 29.072C376.154 29.44 376.866 29.624 377.698 29.624C378.674 29.624 379.466 29.328 380.074 28.736C380.682 28.16 380.986 27.28 380.986 26.096V24.032C380.554 24.656 379.954 25.176 379.186 25.592C378.434 26.008 377.57 26.216 376.594 26.216C375.474 26.216 374.45 25.928 373.522 25.352C372.594 24.776 371.858 23.968 371.314 22.928C370.786 21.872 370.522 20.664 370.522 19.304C370.522 17.96 370.786 16.768 371.314 15.728C371.858 14.688 372.586 13.888 373.498 13.328C374.426 12.768 375.458 12.488 376.594 12.488ZM380.986 19.352C380.986 18.536 380.826 17.84 380.506 17.264C380.186 16.672 379.754 16.224 379.21 15.92C378.666 15.6 378.082 15.44 377.458 15.44C376.834 15.44 376.258 15.592 375.73 15.896C375.202 16.2 374.77 16.648 374.434 17.24C374.114 17.816 373.954 18.504 373.954 19.304C373.954 20.104 374.114 20.808 374.434 21.416C374.77 22.008 375.202 22.464 375.73 22.784C376.274 23.104 376.85 23.264 377.458 23.264C378.082 23.264 378.666 23.112 379.21 22.808C379.754 22.488 380.186 22.04 380.506 21.464C380.826 20.872 380.986 20.168 380.986 19.352ZM395.74 12.512C397.324 12.512 398.604 13.016 399.58 14.024C400.556 15.016 401.044 16.408 401.044 18.2V26H397.684V18.656C397.684 17.6 397.42 16.792 396.892 16.232C396.364 15.656 395.644 15.368 394.732 15.368C393.804 15.368 393.068 15.656 392.524 16.232C391.996 16.792 391.732 17.6 391.732 18.656V26H388.372V12.704H391.732V14.36C392.18 13.784 392.748 13.336 393.436 13.016C394.14 12.68 394.908 12.512 395.74 12.512Z" fill="black"/>
<rect y="54" width="753" height="12" rx="6" fill="#EDECEC"/>
<rect y="54" width="687" height="12" rx="6" fill="#F72585"/>
<g filter="url(#filter0_d_375_56)">
<circle cx="685" cy="60" r="16" fill="#EDECEC"/>
<circle cx="685" cy="60" r="14.5" stroke="#F72585" stroke-width="3"/>
</g>
<path d="M4.968 100.248V110.616C4.968 111.752 5.264 112.624 5.856 113.232C6.448 113.824 7.28 114.12 8.352 114.12C9.44 114.12 10.28 113.824 10.872 113.232C11.464 112.624 11.76 111.752 11.76 110.616V100.248H15.144V110.592C15.144 112.016 14.832 113.224 14.208 114.216C13.6 115.192 12.776 115.928 11.736 116.424C10.712 116.92 9.568 117.168 8.304 117.168C7.056 117.168 5.92 116.92 4.896 116.424C3.888 115.928 3.088 115.192 2.496 114.216C1.904 113.224 1.608 112.016 1.608 110.592V100.248H4.968ZM22.4704 100.248V117H19.1104V100.248H22.4704ZM35.5101 94.272L29.0301 121.344H25.7421L32.2221 94.272H35.5101ZM42.2139 100.248V110.616C42.2139 111.752 42.5099 112.624 43.1019 113.232C43.6939 113.824 44.5259 114.12 45.5979 114.12C46.6859 114.12 47.5259 113.824 48.1179 113.232C48.7099 112.624 49.0059 111.752 49.0059 110.616V100.248H52.3899V110.592C52.3899 112.016 52.0779 113.224 51.4539 114.216C50.8459 115.192 50.0219 115.928 48.9819 116.424C47.9579 116.92 46.8139 117.168 45.5499 117.168C44.3019 117.168 43.1659 116.92 42.1419 116.424C41.1339 115.928 40.3339 115.192 39.7419 114.216C39.1499 113.224 38.8539 112.016 38.8539 110.592V100.248H42.2139ZM66.3883 117L62.7643 111.36L59.4763 117H55.6843L60.9643 108.552L55.6123 100.248H59.4763L63.1003 105.864L66.3643 100.248H70.1563L64.9003 108.672L70.2523 117H66.3883ZM85.8242 100.248C87.5842 100.248 89.1282 100.592 90.4562 101.28C91.8002 101.968 92.8322 102.952 93.5522 104.232C94.2882 105.496 94.6562 106.968 94.6562 108.648C94.6562 110.328 94.2882 111.8 93.5522 113.064C92.8322 114.312 91.8002 115.28 90.4562 115.968C89.1282 116.656 87.5842 117 85.8242 117H79.9682V100.248H85.8242ZM85.7042 114.144C87.4642 114.144 88.8242 113.664 89.7842 112.704C90.7442 111.744 91.2242 110.392 91.2242 108.648C91.2242 106.904 90.7442 105.544 89.7842 104.568C88.8242 103.576 87.4642 103.08 85.7042 103.08H83.3282V114.144H85.7042ZM110.251 110.064C110.251 110.544 110.219 110.976 110.155 111.36H100.435C100.515 112.32 100.851 113.072 101.443 113.616C102.035 114.16 102.763 114.432 103.627 114.432C104.875 114.432 105.763 113.896 106.291 112.824H109.915C109.531 114.104 108.795 115.16 107.707 115.992C106.619 116.808 105.283 117.216 103.699 117.216C102.419 117.216 101.267 116.936 100.243 116.376C99.2353 115.8 98.4433 114.992 97.8673 113.952C97.3073 112.912 97.0273 111.712 97.0273 110.352C97.0273 108.976 97.3073 107.768 97.8673 106.728C98.4273 105.688 99.2113 104.888 100.219 104.328C101.227 103.768 102.387 103.488 103.699 103.488C104.963 103.488 106.091 103.76 107.083 104.304C108.091 104.848 108.867 105.624 109.411 106.632C109.971 107.624 110.251 108.768 110.251 110.064ZM106.771 109.104C106.755 108.24 106.443 107.552 105.835 107.04C105.227 106.512 104.483 106.248 103.603 106.248C102.771 106.248 102.067 106.504 101.491 107.016C100.931 107.512 100.587 108.208 100.459 109.104H106.771ZM118.968 113.904L122.328 103.704H125.904L120.984 117H116.904L112.008 103.704H115.608L118.968 113.904ZM140.871 110.064C140.871 110.544 140.839 110.976 140.775 111.36H131.055C131.135 112.32 131.471 113.072 132.063 113.616C132.655 114.16 133.383 114.432 134.247 114.432C135.495 114.432 136.383 113.896 136.911 112.824H140.535C140.151 114.104 139.415 115.16 138.327 115.992C137.239 116.808 135.903 117.216 134.319 117.216C133.039 117.216 131.887 116.936 130.863 116.376C129.855 115.8 129.063 114.992 128.487 113.952C127.927 112.912 127.647 111.712 127.647 110.352C127.647 108.976 127.927 107.768 128.487 106.728C129.047 105.688 129.831 104.888 130.839 104.328C131.847 103.768 133.007 103.488 134.319 103.488C135.583 103.488 136.711 103.76 137.703 104.304C138.711 104.848 139.487 105.624 140.031 106.632C140.591 107.624 140.871 108.768 140.871 110.064ZM137.391 109.104C137.375 108.24 137.063 107.552 136.455 107.04C135.847 106.512 135.103 106.248 134.223 106.248C133.391 106.248 132.687 106.504 132.111 107.016C131.551 107.512 131.207 108.208 131.079 109.104H137.391ZM147.403 99.24V117H144.043V99.24H147.403ZM157.347 117.216C156.067 117.216 154.915 116.936 153.891 116.376C152.867 115.8 152.059 114.992 151.467 113.952C150.891 112.912 150.603 111.712 150.603 110.352C150.603 108.992 150.899 107.792 151.491 106.752C152.099 105.712 152.923 104.912 153.963 104.352C155.003 103.776 156.163 103.488 157.443 103.488C158.723 103.488 159.883 103.776 160.923 104.352C161.963 104.912 162.779 105.712 163.371 106.752C163.979 107.792 164.283 108.992 164.283 110.352C164.283 111.712 163.971 112.912 163.347 113.952C162.739 114.992 161.907 115.8 160.851 116.376C159.811 116.936 158.643 117.216 157.347 117.216ZM157.347 114.288C157.955 114.288 158.523 114.144 159.051 113.856C159.595 113.552 160.027 113.104 160.347 112.512C160.667 111.92 160.827 111.2 160.827 110.352C160.827 109.088 160.491 108.12 159.819 107.448C159.163 106.76 158.355 106.416 157.395 106.416C156.435 106.416 155.627 106.76 154.971 107.448C154.331 108.12 154.011 109.088 154.011 110.352C154.011 111.616 154.323 112.592 154.947 113.28C155.587 113.952 156.387 114.288 157.347 114.288ZM170.828 105.624C171.26 105.016 171.852 104.512 172.604 104.112C173.372 103.696 174.244 103.488 175.22 103.488C176.356 103.488 177.38 103.768 178.292 104.328C179.22 104.888 179.948 105.688 180.476 106.728C181.02 107.752 181.292 108.944 181.292 110.304C181.292 111.664 181.02 112.872 180.476 113.928C179.948 114.968 179.22 115.776 178.292 116.352C177.38 116.928 176.356 117.216 175.22 117.216C174.244 117.216 173.38 117.016 172.628 116.616C171.892 116.216 171.292 115.712 170.828 115.104V123.336H167.468V103.704H170.828V105.624ZM177.86 110.304C177.86 109.504 177.692 108.816 177.356 108.24C177.036 107.648 176.604 107.2 176.06 106.896C175.532 106.592 174.956 106.44 174.332 106.44C173.724 106.44 173.148 106.6 172.604 106.92C172.076 107.224 171.644 107.672 171.308 108.264C170.988 108.856 170.828 109.552 170.828 110.352C170.828 111.152 170.988 111.848 171.308 112.44C171.644 113.032 172.076 113.488 172.604 113.808C173.148 114.112 173.724 114.264 174.332 114.264C174.956 114.264 175.532 114.104 176.06 113.784C176.604 113.464 177.036 113.008 177.356 112.416C177.692 111.824 177.86 111.12 177.86 110.304ZM200.966 103.512C202.598 103.512 203.91 104.016 204.902 105.024C205.91 106.016 206.414 107.408 206.414 109.2V117H203.054V109.656C203.054 108.616 202.79 107.824 202.262 107.28C201.734 106.72 201.014 106.44 200.102 106.44C199.19 106.44 198.462 106.72 197.918 107.28C197.39 107.824 197.126 108.616 197.126 109.656V117H193.766V109.656C193.766 108.616 193.502 107.824 192.974 107.28C192.446 106.72 191.726 106.44 190.814 106.44C189.886 106.44 189.15 106.72 188.606 107.28C188.078 107.824 187.814 108.616 187.814 109.656V117H184.454V103.704H187.814V105.312C188.246 104.752 188.798 104.312 189.47 103.992C190.158 103.672 190.91 103.512 191.726 103.512C192.766 103.512 193.694 103.736 194.51 104.184C195.326 104.616 195.958 105.24 196.406 106.056C196.838 105.288 197.462 104.672 198.278 104.208C199.11 103.744 200.006 103.512 200.966 103.512ZM222.682 110.064C222.682 110.544 222.65 110.976 222.586 111.36H212.866C212.946 112.32 213.282 113.072 213.874 113.616C214.466 114.16 215.194 114.432 216.058 114.432C217.306 114.432 218.194 113.896 218.722 112.824H222.346C221.962 114.104 221.226 115.16 220.138 115.992C219.05 116.808 217.714 117.216 216.13 117.216C214.85 117.216 213.698 116.936 212.674 116.376C211.666 115.8 210.874 114.992 210.298 113.952C209.738 112.912 209.458 111.712 209.458 110.352C209.458 108.976 209.738 107.768 210.298 106.728C210.858 105.688 211.642 104.888 212.65 104.328C213.658 103.768 214.818 103.488 216.13 103.488C217.394 103.488 218.522 103.76 219.514 104.304C220.522 104.848 221.298 105.624 221.842 106.632C222.402 107.624 222.682 108.768 222.682 110.064ZM219.202 109.104C219.186 108.24 218.874 107.552 218.266 107.04C217.658 106.512 216.914 106.248 216.034 106.248C215.202 106.248 214.498 106.504 213.922 107.016C213.362 107.512 213.018 108.208 212.89 109.104H219.202ZM233.222 103.512C234.806 103.512 236.086 104.016 237.062 105.024C238.038 106.016 238.526 107.408 238.526 109.2V117H235.166V109.656C235.166 108.6 234.902 107.792 234.374 107.232C233.846 106.656 233.126 106.368 232.214 106.368C231.286 106.368 230.55 106.656 230.006 107.232C229.478 107.792 229.214 108.6 229.214 109.656V117H225.854V103.704H229.214V105.36C229.662 104.784 230.23 104.336 230.918 104.016C231.622 103.68 232.39 103.512 233.222 103.512ZM246.354 106.464V112.896C246.354 113.344 246.458 113.672 246.666 113.88C246.89 114.072 247.258 114.168 247.77 114.168H249.33V117H247.218C244.386 117 242.97 115.624 242.97 112.872V106.464H241.386V103.704H242.97V100.416H246.354V103.704H249.33V106.464H246.354Z" fill="black"/>
<rect y="145" width="753" height="12" rx="6" fill="#EDECEC"/>
<rect y="145" width="657" height="12" rx="6" fill="#F72585"/>
<g filter="url(#filter1_d_375_56)">
<circle cx="653" cy="151" r="16" fill="#EDECEC"/>
<circle cx="653" cy="151" r="14.5" stroke="#F72585" stroke-width="3"/>
</g>
<path d="M24.048 191.248L19.368 208H15.408L12.264 196.072L8.976 208L5.04 208.024L0.528 191.248H4.128L7.08 204.256L10.488 191.248H14.232L17.448 204.184L20.424 191.248H24.048ZM39.3219 201.064C39.3219 201.544 39.2899 201.976 39.2259 202.36H29.5059C29.5859 203.32 29.9219 204.072 30.5139 204.616C31.1059 205.16 31.8339 205.432 32.6979 205.432C33.9459 205.432 34.8339 204.896 35.3619 203.824H38.9859C38.6019 205.104 37.8659 206.16 36.7779 206.992C35.6899 207.808 34.3539 208.216 32.7699 208.216C31.4899 208.216 30.3379 207.936 29.3139 207.376C28.3059 206.8 27.5139 205.992 26.9379 204.952C26.3779 203.912 26.0979 202.712 26.0979 201.352C26.0979 199.976 26.3779 198.768 26.9379 197.728C27.4979 196.688 28.2819 195.888 29.2899 195.328C30.2979 194.768 31.4579 194.488 32.7699 194.488C34.0339 194.488 35.1619 194.76 36.1539 195.304C37.1619 195.848 37.9379 196.624 38.4819 197.632C39.0419 198.624 39.3219 199.768 39.3219 201.064ZM35.8419 200.104C35.8259 199.24 35.5139 198.552 34.9059 198.04C34.2979 197.512 33.5539 197.248 32.6739 197.248C31.8419 197.248 31.1379 197.504 30.5619 198.016C30.0019 198.512 29.6579 199.208 29.5299 200.104H35.8419ZM45.8544 196.648C46.2864 196.008 46.8784 195.488 47.6304 195.088C48.3984 194.688 49.2704 194.488 50.2464 194.488C51.3824 194.488 52.4064 194.768 53.3184 195.328C54.2464 195.888 54.9744 196.688 55.5024 197.728C56.0464 198.752 56.3184 199.944 56.3184 201.304C56.3184 202.664 56.0464 203.872 55.5024 204.928C54.9744 205.968 54.2464 206.776 53.3184 207.352C52.4064 207.928 51.3824 208.216 50.2464 208.216C49.2544 208.216 48.3824 208.024 47.6304 207.64C46.8944 207.24 46.3024 206.728 45.8544 206.104V208H42.4944V190.24H45.8544V196.648ZM52.8864 201.304C52.8864 200.504 52.7184 199.816 52.3824 199.24C52.0624 198.648 51.6304 198.2 51.0864 197.896C50.5584 197.592 49.9824 197.44 49.3584 197.44C48.7504 197.44 48.1744 197.6 47.6304 197.92C47.1024 198.224 46.6704 198.672 46.3344 199.264C46.0144 199.856 45.8544 200.552 45.8544 201.352C45.8544 202.152 46.0144 202.848 46.3344 203.44C46.6704 204.032 47.1024 204.488 47.6304 204.808C48.1744 205.112 48.7504 205.264 49.3584 205.264C49.9824 205.264 50.5584 205.104 51.0864 204.784C51.6304 204.464 52.0624 204.008 52.3824 203.416C52.7184 202.824 52.8864 202.12 52.8864 201.304ZM71.7748 191.248C73.5348 191.248 75.0788 191.592 76.4068 192.28C77.7508 192.968 78.7828 193.952 79.5028 195.232C80.2388 196.496 80.6068 197.968 80.6068 199.648C80.6068 201.328 80.2388 202.8 79.5028 204.064C78.7828 205.312 77.7508 206.28 76.4068 206.968C75.0788 207.656 73.5348 208 71.7748 208H65.9188V191.248H71.7748ZM71.6548 205.144C73.4148 205.144 74.7748 204.664 75.7348 203.704C76.6948 202.744 77.1748 201.392 77.1748 199.648C77.1748 197.904 76.6948 196.544 75.7348 195.568C74.7748 194.576 73.4148 194.08 71.6548 194.08H69.2788V205.144H71.6548ZM96.2019 201.064C96.2019 201.544 96.1699 201.976 96.1059 202.36H86.3859C86.4659 203.32 86.8019 204.072 87.3939 204.616C87.9859 205.16 88.7139 205.432 89.5779 205.432C90.8259 205.432 91.7139 204.896 92.2419 203.824H95.8659C95.4819 205.104 94.7459 206.16 93.6579 206.992C92.5699 207.808 91.2339 208.216 89.6499 208.216C88.3699 208.216 87.2179 207.936 86.1939 207.376C85.1859 206.8 84.3939 205.992 83.8179 204.952C83.2579 203.912 82.9779 202.712 82.9779 201.352C82.9779 199.976 83.2579 198.768 83.8179 197.728C84.3779 196.688 85.1619 195.888 86.1699 195.328C87.1779 194.768 88.3379 194.488 89.6499 194.488C90.9139 194.488 92.0419 194.76 93.0339 195.304C94.0419 195.848 94.8179 196.624 95.3619 197.632C95.9219 198.624 96.2019 199.768 96.2019 201.064ZM92.7219 200.104C92.7059 199.24 92.3939 198.552 91.7859 198.04C91.1779 197.512 90.4339 197.248 89.5539 197.248C88.7219 197.248 88.0179 197.504 87.4419 198.016C86.8819 198.512 86.5379 199.208 86.4099 200.104H92.7219ZM104.918 204.904L108.278 194.704H111.854L106.934 208H102.854L97.9584 194.704H101.558L104.918 204.904ZM126.822 201.064C126.822 201.544 126.79 201.976 126.726 202.36H117.006C117.086 203.32 117.422 204.072 118.014 204.616C118.606 205.16 119.334 205.432 120.198 205.432C121.446 205.432 122.334 204.896 122.862 203.824H126.486C126.102 205.104 125.366 206.16 124.278 206.992C123.19 207.808 121.854 208.216 120.27 208.216C118.99 208.216 117.838 207.936 116.814 207.376C115.806 206.8 115.014 205.992 114.438 204.952C113.878 203.912 113.598 202.712 113.598 201.352C113.598 199.976 113.878 198.768 114.438 197.728C114.998 196.688 115.782 195.888 116.79 195.328C117.798 194.768 118.958 194.488 120.27 194.488C121.534 194.488 122.662 194.76 123.654 195.304C124.662 195.848 125.438 196.624 125.982 197.632C126.542 198.624 126.822 199.768 126.822 201.064ZM123.342 200.104C123.326 199.24 123.014 198.552 122.406 198.04C121.798 197.512 121.054 197.248 120.174 197.248C119.342 197.248 118.638 197.504 118.062 198.016C117.502 198.512 117.158 199.208 117.03 200.104H123.342ZM133.354 190.24V208H129.994V190.24H133.354ZM143.298 208.216C142.018 208.216 140.866 207.936 139.842 207.376C138.818 206.8 138.01 205.992 137.418 204.952C136.842 203.912 136.554 202.712 136.554 201.352C136.554 199.992 136.85 198.792 137.442 197.752C138.05 196.712 138.874 195.912 139.914 195.352C140.954 194.776 142.114 194.488 143.394 194.488C144.674 194.488 145.834 194.776 146.874 195.352C147.914 195.912 148.73 196.712 149.322 197.752C149.93 198.792 150.234 199.992 150.234 201.352C150.234 202.712 149.922 203.912 149.298 204.952C148.69 205.992 147.858 206.8 146.802 207.376C145.762 207.936 144.594 208.216 143.298 208.216ZM143.298 205.288C143.906 205.288 144.474 205.144 145.002 204.856C145.546 204.552 145.978 204.104 146.298 203.512C146.618 202.92 146.778 202.2 146.778 201.352C146.778 200.088 146.442 199.12 145.77 198.448C145.114 197.76 144.306 197.416 143.346 197.416C142.386 197.416 141.578 197.76 140.922 198.448C140.282 199.12 139.962 200.088 139.962 201.352C139.962 202.616 140.274 203.592 140.898 204.28C141.538 204.952 142.338 205.288 143.298 205.288ZM156.778 196.624C157.21 196.016 157.802 195.512 158.554 195.112C159.322 194.696 160.194 194.488 161.17 194.488C162.306 194.488 163.33 194.768 164.242 195.328C165.17 195.888 165.898 196.688 166.426 197.728C166.97 198.752 167.242 199.944 167.242 201.304C167.242 202.664 166.97 203.872 166.426 204.928C165.898 205.968 165.17 206.776 164.242 207.352C163.33 207.928 162.306 208.216 161.17 208.216C160.194 208.216 159.33 208.016 158.578 207.616C157.842 207.216 157.242 206.712 156.778 206.104V214.336H153.418V194.704H156.778V196.624ZM163.81 201.304C163.81 200.504 163.642 199.816 163.306 199.24C162.986 198.648 162.554 198.2 162.01 197.896C161.482 197.592 160.906 197.44 160.282 197.44C159.674 197.44 159.098 197.6 158.554 197.92C158.026 198.224 157.594 198.672 157.258 199.264C156.938 199.856 156.778 200.552 156.778 201.352C156.778 202.152 156.938 202.848 157.258 203.44C157.594 204.032 158.026 204.488 158.554 204.808C159.098 205.112 159.674 205.264 160.282 205.264C160.906 205.264 161.482 205.104 162.01 204.784C162.554 204.464 162.986 204.008 163.306 203.416C163.642 202.824 163.81 202.12 163.81 201.304ZM186.916 194.512C188.548 194.512 189.86 195.016 190.852 196.024C191.86 197.016 192.364 198.408 192.364 200.2V208H189.004V200.656C189.004 199.616 188.74 198.824 188.212 198.28C187.684 197.72 186.964 197.44 186.052 197.44C185.14 197.44 184.412 197.72 183.868 198.28C183.34 198.824 183.076 199.616 183.076 200.656V208H179.716V200.656C179.716 199.616 179.452 198.824 178.924 198.28C178.396 197.72 177.676 197.44 176.764 197.44C175.836 197.44 175.1 197.72 174.556 198.28C174.028 198.824 173.764 199.616 173.764 200.656V208H170.404V194.704H173.764V196.312C174.196 195.752 174.748 195.312 175.42 194.992C176.108 194.672 176.86 194.512 177.676 194.512C178.716 194.512 179.644 194.736 180.46 195.184C181.276 195.616 181.908 196.24 182.356 197.056C182.788 196.288 183.412 195.672 184.228 195.208C185.06 194.744 185.956 194.512 186.916 194.512ZM208.633 201.064C208.633 201.544 208.601 201.976 208.537 202.36H198.817C198.897 203.32 199.233 204.072 199.825 204.616C200.417 205.16 201.145 205.432 202.009 205.432C203.257 205.432 204.145 204.896 204.673 203.824H208.297C207.913 205.104 207.177 206.16 206.089 206.992C205.001 207.808 203.665 208.216 202.081 208.216C200.801 208.216 199.649 207.936 198.625 207.376C197.617 206.8 196.825 205.992 196.249 204.952C195.689 203.912 195.409 202.712 195.409 201.352C195.409 199.976 195.689 198.768 196.249 197.728C196.809 196.688 197.593 195.888 198.601 195.328C199.609 194.768 200.769 194.488 202.081 194.488C203.345 194.488 204.473 194.76 205.465 195.304C206.473 195.848 207.249 196.624 207.793 197.632C208.353 198.624 208.633 199.768 208.633 201.064ZM205.153 200.104C205.137 199.24 204.825 198.552 204.217 198.04C203.609 197.512 202.865 197.248 201.985 197.248C201.153 197.248 200.449 197.504 199.873 198.016C199.313 198.512 198.969 199.208 198.841 200.104H205.153ZM219.173 194.512C220.757 194.512 222.037 195.016 223.013 196.024C223.989 197.016 224.477 198.408 224.477 200.2V208H221.117V200.656C221.117 199.6 220.853 198.792 220.325 198.232C219.797 197.656 219.077 197.368 218.165 197.368C217.237 197.368 216.501 197.656 215.957 198.232C215.429 198.792 215.165 199.6 215.165 200.656V208H211.805V194.704H215.165V196.36C215.613 195.784 216.181 195.336 216.869 195.016C217.573 194.68 218.341 194.512 219.173 194.512ZM232.304 197.464V203.896C232.304 204.344 232.408 204.672 232.616 204.88C232.84 205.072 233.208 205.168 233.72 205.168H235.28V208H233.168C230.336 208 228.92 206.624 228.92 203.872V197.464H227.336V194.704H228.92V191.416H232.304V194.704H235.28V197.464H232.304Z" fill="black"/>
<rect y="236" width="753" height="12" rx="6" fill="#EDECEC"/>
<rect y="236" width="721" height="12" rx="6" fill="#F72585"/>
<g filter="url(#filter2_d_375_56)">
<circle cx="717" cy="242" r="16" fill="#EDECEC"/>
<circle cx="717" cy="242" r="14.5" stroke="#F72585" stroke-width="3"/>
</g>
<path d="M7.44 299.168C6.272 299.168 5.216 298.968 4.272 298.568C3.344 298.168 2.608 297.592 2.064 296.84C1.52 296.088 1.24 295.2 1.224 294.176H4.824C4.872 294.864 5.112 295.408 5.544 295.808C5.992 296.208 6.6 296.408 7.368 296.408C8.152 296.408 8.768 296.224 9.216 295.856C9.664 295.472 9.888 294.976 9.888 294.368C9.888 293.872 9.736 293.464 9.432 293.144C9.128 292.824 8.744 292.576 8.28 292.4C7.832 292.208 7.208 292 6.408 291.776C5.32 291.456 4.432 291.144 3.744 290.84C3.072 290.52 2.488 290.048 1.992 289.424C1.512 288.784 1.272 287.936 1.272 286.88C1.272 285.888 1.52 285.024 2.016 284.288C2.512 283.552 3.208 282.992 4.104 282.608C5 282.208 6.024 282.008 7.176 282.008C8.904 282.008 10.304 282.432 11.376 283.28C12.464 284.112 13.064 285.28 13.176 286.784H9.48C9.448 286.208 9.2 285.736 8.736 285.368C8.288 284.984 7.688 284.792 6.936 284.792C6.28 284.792 5.752 284.96 5.352 285.296C4.968 285.632 4.776 286.12 4.776 286.76C4.776 287.208 4.92 287.584 5.208 287.888C5.512 288.176 5.88 288.416 6.312 288.608C6.76 288.784 7.384 288.992 8.184 289.232C9.272 289.552 10.16 289.872 10.848 290.192C11.536 290.512 12.128 290.992 12.624 291.632C13.12 292.272 13.368 293.112 13.368 294.152C13.368 295.048 13.136 295.88 12.672 296.648C12.208 297.416 11.528 298.032 10.632 298.496C9.736 298.944 8.672 299.168 7.44 299.168ZM18.705 284.12C18.113 284.12 17.617 283.936 17.217 283.568C16.833 283.184 16.641 282.712 16.641 282.152C16.641 281.592 16.833 281.128 17.217 280.76C17.617 280.376 18.113 280.184 18.705 280.184C19.297 280.184 19.785 280.376 20.169 280.76C20.569 281.128 20.769 281.592 20.769 282.152C20.769 282.712 20.569 283.184 20.169 283.568C19.785 283.936 19.297 284.12 18.705 284.12ZM20.361 285.704V299H17.001V285.704H20.361ZM31.7687 285.512C33.3527 285.512 34.6327 286.016 35.6087 287.024C36.5847 288.016 37.0727 289.408 37.0727 291.2V299H33.7127V291.656C33.7127 290.6 33.4487 289.792 32.9207 289.232C32.3927 288.656 31.6727 288.368 30.7607 288.368C29.8327 288.368 29.0967 288.656 28.5527 289.232C28.0247 289.792 27.7607 290.6 27.7607 291.656V299H24.4007V285.704H27.7607V287.36C28.2087 286.784 28.7767 286.336 29.4647 286.016C30.1687 285.68 30.9367 285.512 31.7687 285.512ZM46.1959 285.488C47.1879 285.488 48.0599 285.688 48.8119 286.088C49.5639 286.472 50.1559 286.976 50.5879 287.6V285.704H53.9719V299.096C53.9719 300.328 53.7239 301.424 53.2279 302.384C52.7319 303.36 51.9879 304.128 50.9959 304.688C50.0039 305.264 48.8039 305.552 47.3959 305.552C45.5079 305.552 43.9559 305.112 42.7399 304.232C41.5399 303.352 40.8599 302.152 40.6999 300.632H44.0359C44.2119 301.24 44.5879 301.72 45.1639 302.072C45.7559 302.44 46.4679 302.624 47.2999 302.624C48.2759 302.624 49.0679 302.328 49.6759 301.736C50.2839 301.16 50.5879 300.28 50.5879 299.096V297.032C50.1559 297.656 49.5559 298.176 48.7879 298.592C48.0359 299.008 47.1719 299.216 46.1959 299.216C45.0759 299.216 44.0519 298.928 43.1239 298.352C42.1959 297.776 41.4599 296.968 40.9159 295.928C40.3879 294.872 40.1239 293.664 40.1239 292.304C40.1239 290.96 40.3879 289.768 40.9159 288.728C41.4599 287.688 42.1879 286.888 43.0999 286.328C44.0279 285.768 45.0599 285.488 46.1959 285.488ZM50.5879 292.352C50.5879 291.536 50.4279 290.84 50.1079 290.264C49.7879 289.672 49.3559 289.224 48.8119 288.92C48.2679 288.6 47.6839 288.44 47.0599 288.44C46.4359 288.44 45.8599 288.592 45.3319 288.896C44.8039 289.2 44.3719 289.648 44.0359 290.24C43.7159 290.816 43.5559 291.504 43.5559 292.304C43.5559 293.104 43.7159 293.808 44.0359 294.416C44.3719 295.008 44.8039 295.464 45.3319 295.784C45.8759 296.104 46.4519 296.264 47.0599 296.264C47.6839 296.264 48.2679 296.112 48.8119 295.808C49.3559 295.488 49.7879 295.04 50.1079 294.464C50.4279 293.872 50.5879 293.168 50.5879 292.352ZM61.3335 281.24V299H57.9735V281.24H61.3335ZM77.7332 292.064C77.7332 292.544 77.7012 292.976 77.6372 293.36H67.9172C67.9972 294.32 68.3332 295.072 68.9252 295.616C69.5172 296.16 70.2452 296.432 71.1092 296.432C72.3572 296.432 73.2452 295.896 73.7732 294.824H77.3972C77.0132 296.104 76.2772 297.16 75.1892 297.992C74.1012 298.808 72.7652 299.216 71.1812 299.216C69.9012 299.216 68.7492 298.936 67.7252 298.376C66.7172 297.8 65.9252 296.992 65.3492 295.952C64.7892 294.912 64.5092 293.712 64.5092 292.352C64.5092 290.976 64.7892 289.768 65.3492 288.728C65.9092 287.688 66.6932 286.888 67.7012 286.328C68.7092 285.768 69.8692 285.488 71.1812 285.488C72.4452 285.488 73.5732 285.76 74.5652 286.304C75.5732 286.848 76.3492 287.624 76.8932 288.632C77.4532 289.624 77.7332 290.768 77.7332 292.064ZM74.2532 291.104C74.2372 290.24 73.9252 289.552 73.3172 289.04C72.7092 288.512 71.9652 288.248 71.0852 288.248C70.2532 288.248 69.5492 288.504 68.9732 289.016C68.4132 289.512 68.0692 290.208 67.9412 291.104H74.2532ZM99.5604 287.432C99.5604 288.328 99.3444 289.168 98.9124 289.952C98.4964 290.736 97.8324 291.368 96.9204 291.848C96.0244 292.328 94.8884 292.568 93.5124 292.568H90.7044V299H87.3444V282.248H93.5124C94.8084 282.248 95.9124 282.472 96.8244 282.92C97.7364 283.368 98.4164 283.984 98.8644 284.768C99.3284 285.552 99.5604 286.44 99.5604 287.432ZM93.3684 289.856C94.2964 289.856 94.9844 289.648 95.4324 289.232C95.8804 288.8 96.1044 288.2 96.1044 287.432C96.1044 285.8 95.1924 284.984 93.3684 284.984H90.7044V289.856H93.3684ZM101.802 292.304C101.802 290.96 102.066 289.768 102.594 288.728C103.138 287.688 103.866 286.888 104.778 286.328C105.706 285.768 106.738 285.488 107.874 285.488C108.866 285.488 109.73 285.688 110.466 286.088C111.218 286.488 111.818 286.992 112.266 287.6V285.704H115.65V299H112.266V297.056C111.834 297.68 111.234 298.2 110.466 298.616C109.714 299.016 108.842 299.216 107.85 299.216C106.73 299.216 105.706 298.928 104.778 298.352C103.866 297.776 103.138 296.968 102.594 295.928C102.066 294.872 101.802 293.664 101.802 292.304ZM112.266 292.352C112.266 291.536 112.106 290.84 111.786 290.264C111.466 289.672 111.034 289.224 110.49 288.92C109.946 288.6 109.362 288.44 108.738 288.44C108.114 288.44 107.538 288.592 107.01 288.896C106.482 289.2 106.05 289.648 105.714 290.24C105.394 290.816 105.234 291.504 105.234 292.304C105.234 293.104 105.394 293.808 105.714 294.416C106.05 295.008 106.482 295.464 107.01 295.784C107.554 296.104 108.13 296.264 108.738 296.264C109.362 296.264 109.946 296.112 110.49 295.808C111.034 295.488 111.466 295.04 111.786 294.464C112.106 293.872 112.266 293.168 112.266 292.352ZM124.86 285.488C125.852 285.488 126.724 285.688 127.476 286.088C128.228 286.472 128.82 286.976 129.252 287.6V285.704H132.636V299.096C132.636 300.328 132.388 301.424 131.892 302.384C131.396 303.36 130.652 304.128 129.66 304.688C128.668 305.264 127.468 305.552 126.06 305.552C124.172 305.552 122.62 305.112 121.404 304.232C120.204 303.352 119.524 302.152 119.364 300.632H122.7C122.876 301.24 123.252 301.72 123.828 302.072C124.42 302.44 125.132 302.624 125.964 302.624C126.94 302.624 127.732 302.328 128.34 301.736C128.948 301.16 129.252 300.28 129.252 299.096V297.032C128.82 297.656 128.22 298.176 127.452 298.592C126.7 299.008 125.836 299.216 124.86 299.216C123.74 299.216 122.716 298.928 121.788 298.352C120.86 297.776 120.124 296.968 119.58 295.928C119.052 294.872 118.788 293.664 118.788 292.304C118.788 290.96 119.052 289.768 119.58 288.728C120.124 287.688 120.852 286.888 121.764 286.328C122.692 285.768 123.724 285.488 124.86 285.488ZM129.252 292.352C129.252 291.536 129.092 290.84 128.772 290.264C128.452 289.672 128.02 289.224 127.476 288.92C126.932 288.6 126.348 288.44 125.724 288.44C125.1 288.44 124.524 288.592 123.996 288.896C123.468 289.2 123.036 289.648 122.7 290.24C122.38 290.816 122.22 291.504 122.22 292.304C122.22 293.104 122.38 293.808 122.7 294.416C123.036 295.008 123.468 295.464 123.996 295.784C124.54 296.104 125.116 296.264 125.724 296.264C126.348 296.264 126.932 296.112 127.476 295.808C128.02 295.488 128.452 295.04 128.772 294.464C129.092 293.872 129.252 293.168 129.252 292.352ZM148.997 292.064C148.997 292.544 148.965 292.976 148.901 293.36H139.181C139.261 294.32 139.597 295.072 140.189 295.616C140.781 296.16 141.509 296.432 142.373 296.432C143.621 296.432 144.509 295.896 145.037 294.824H148.661C148.277 296.104 147.541 297.16 146.453 297.992C145.365 298.808 144.029 299.216 142.445 299.216C141.165 299.216 140.013 298.936 138.989 298.376C137.981 297.8 137.189 296.992 136.613 295.952C136.053 294.912 135.773 293.712 135.773 292.352C135.773 290.976 136.053 289.768 136.613 288.728C137.173 287.688 137.957 286.888 138.965 286.328C139.973 285.768 141.133 285.488 142.445 285.488C143.709 285.488 144.837 285.76 145.829 286.304C146.837 286.848 147.613 287.624 148.157 288.632C148.717 289.624 148.997 290.768 148.997 292.064ZM145.517 291.104C145.501 290.24 145.189 289.552 144.581 289.04C143.973 288.512 143.229 288.248 142.349 288.248C141.517 288.248 140.813 288.504 140.237 289.016C139.677 289.512 139.333 290.208 139.205 291.104H145.517ZM168.88 295.808H162.208L161.104 299H157.576L163.6 282.224H167.513L173.537 299H169.985L168.88 295.808ZM167.968 293.12L165.544 286.112L163.12 293.12H167.968ZM179.868 287.624C180.3 287.016 180.892 286.512 181.644 286.112C182.412 285.696 183.284 285.488 184.26 285.488C185.396 285.488 186.42 285.768 187.332 286.328C188.26 286.888 188.988 287.688 189.516 288.728C190.06 289.752 190.332 290.944 190.332 292.304C190.332 293.664 190.06 294.872 189.516 295.928C188.988 296.968 188.26 297.776 187.332 298.352C186.42 298.928 185.396 299.216 184.26 299.216C183.284 299.216 182.42 299.016 181.668 298.616C180.932 298.216 180.332 297.712 179.868 297.104V305.336H176.508V285.704H179.868V287.624ZM186.9 292.304C186.9 291.504 186.732 290.816 186.396 290.24C186.076 289.648 185.644 289.2 185.1 288.896C184.572 288.592 183.996 288.44 183.372 288.44C182.764 288.44 182.188 288.6 181.644 288.92C181.116 289.224 180.684 289.672 180.348 290.264C180.028 290.856 179.868 291.552 179.868 292.352C179.868 293.152 180.028 293.848 180.348 294.44C180.684 295.032 181.116 295.488 181.644 295.808C182.188 296.112 182.764 296.264 183.372 296.264C183.996 296.264 184.572 296.104 185.1 295.784C185.644 295.464 186.076 295.008 186.396 294.416C186.732 293.824 186.9 293.12 186.9 292.304ZM196.854 287.624C197.286 287.016 197.878 286.512 198.63 286.112C199.398 285.696 200.27 285.488 201.246 285.488C202.382 285.488 203.406 285.768 204.318 286.328C205.246 286.888 205.974 287.688 206.502 288.728C207.046 289.752 207.318 290.944 207.318 292.304C207.318 293.664 207.046 294.872 206.502 295.928C205.974 296.968 205.246 297.776 204.318 298.352C203.406 298.928 202.382 299.216 201.246 299.216C200.27 299.216 199.406 299.016 198.654 298.616C197.918 298.216 197.318 297.712 196.854 297.104V305.336H193.494V285.704H196.854V287.624ZM203.886 292.304C203.886 291.504 203.718 290.816 203.382 290.24C203.062 289.648 202.63 289.2 202.086 288.896C201.558 288.592 200.982 288.44 200.358 288.44C199.75 288.44 199.174 288.6 198.63 288.92C198.102 289.224 197.67 289.672 197.334 290.264C197.014 290.856 196.854 291.552 196.854 292.352C196.854 293.152 197.014 293.848 197.334 294.44C197.67 295.032 198.102 295.488 198.63 295.808C199.174 296.112 199.75 296.264 200.358 296.264C200.982 296.264 201.558 296.104 202.086 295.784C202.63 295.464 203.062 295.008 203.382 294.416C203.718 293.824 203.886 293.12 203.886 292.304ZM213.839 281.24V299H210.479V281.24H213.839ZM219.583 284.12C218.991 284.12 218.495 283.936 218.095 283.568C217.711 283.184 217.519 282.712 217.519 282.152C217.519 281.592 217.711 281.128 218.095 280.76C218.495 280.376 218.991 280.184 219.583 280.184C220.175 280.184 220.663 280.376 221.047 280.76C221.447 281.128 221.647 281.592 221.647 282.152C221.647 282.712 221.447 283.184 221.047 283.568C220.663 283.936 220.175 284.12 219.583 284.12ZM221.239 285.704V299H217.879V285.704H221.239ZM224.415 292.352C224.415 290.976 224.695 289.776 225.255 288.752C225.815 287.712 226.591 286.912 227.583 286.352C228.575 285.776 229.711 285.488 230.991 285.488C232.639 285.488 233.999 285.904 235.071 286.736C236.159 287.552 236.887 288.704 237.255 290.192H233.631C233.439 289.616 233.111 289.168 232.647 288.848C232.199 288.512 231.639 288.344 230.967 288.344C230.007 288.344 229.247 288.696 228.687 289.4C228.127 290.088 227.847 291.072 227.847 292.352C227.847 293.616 228.127 294.6 228.687 295.304C229.247 295.992 230.007 296.336 230.967 296.336C232.327 296.336 233.215 295.728 233.631 294.512H237.255C236.887 295.952 236.159 297.096 235.071 297.944C233.983 298.792 232.623 299.216 230.991 299.216C229.711 299.216 228.575 298.936 227.583 298.376C226.591 297.8 225.815 297 225.255 295.976C224.695 294.936 224.415 293.728 224.415 292.352ZM239.572 292.304C239.572 290.96 239.836 289.768 240.364 288.728C240.908 287.688 241.636 286.888 242.548 286.328C243.476 285.768 244.508 285.488 245.644 285.488C246.636 285.488 247.5 285.688 248.236 286.088C248.988 286.488 249.588 286.992 250.036 287.6V285.704H253.42V299H250.036V297.056C249.604 297.68 249.004 298.2 248.236 298.616C247.484 299.016 246.612 299.216 245.62 299.216C244.5 299.216 243.476 298.928 242.548 298.352C241.636 297.776 240.908 296.968 240.364 295.928C239.836 294.872 239.572 293.664 239.572 292.304ZM250.036 292.352C250.036 291.536 249.876 290.84 249.556 290.264C249.236 289.672 248.804 289.224 248.26 288.92C247.716 288.6 247.132 288.44 246.508 288.44C245.884 288.44 245.308 288.592 244.78 288.896C244.252 289.2 243.82 289.648 243.484 290.24C243.164 290.816 243.004 291.504 243.004 292.304C243.004 293.104 243.164 293.808 243.484 294.416C243.82 295.008 244.252 295.464 244.78 295.784C245.324 296.104 245.9 296.264 246.508 296.264C247.132 296.264 247.716 296.112 248.26 295.808C248.804 295.488 249.236 295.04 249.556 294.464C249.876 293.872 250.036 293.168 250.036 292.352ZM261.334 288.464V294.896C261.334 295.344 261.438 295.672 261.646 295.88C261.87 296.072 262.238 296.168 262.75 296.168H264.31V299H262.198C259.366 299 257.95 297.624 257.95 294.872V288.464H256.366V285.704H257.95V282.416H261.334V285.704H264.31V288.464H261.334ZM269.151 284.12C268.559 284.12 268.063 283.936 267.663 283.568C267.279 283.184 267.087 282.712 267.087 282.152C267.087 281.592 267.279 281.128 267.663 280.76C268.063 280.376 268.559 280.184 269.151 280.184C269.743 280.184 270.231 280.376 270.615 280.76C271.015 281.128 271.215 281.592 271.215 282.152C271.215 282.712 271.015 283.184 270.615 283.568C270.231 283.936 269.743 284.12 269.151 284.12ZM270.807 285.704V299H267.447V285.704H270.807ZM280.75 299.216C279.47 299.216 278.318 298.936 277.294 298.376C276.27 297.8 275.462 296.992 274.87 295.952C274.294 294.912 274.006 293.712 274.006 292.352C274.006 290.992 274.302 289.792 274.894 288.752C275.502 287.712 276.326 286.912 277.366 286.352C278.406 285.776 279.566 285.488 280.846 285.488C282.126 285.488 283.286 285.776 284.326 286.352C285.366 286.912 286.182 287.712 286.774 288.752C287.382 289.792 287.686 290.992 287.686 292.352C287.686 293.712 287.374 294.912 286.75 295.952C286.142 296.992 285.31 297.8 284.254 298.376C283.214 298.936 282.046 299.216 280.75 299.216ZM280.75 296.288C281.358 296.288 281.926 296.144 282.454 295.856C282.998 295.552 283.43 295.104 283.75 294.512C284.07 293.92 284.23 293.2 284.23 292.352C284.23 291.088 283.894 290.12 283.222 289.448C282.566 288.76 281.758 288.416 280.798 288.416C279.838 288.416 279.03 288.76 278.374 289.448C277.734 290.12 277.414 291.088 277.414 292.352C277.414 293.616 277.726 294.592 278.35 295.28C278.99 295.952 279.79 296.288 280.75 296.288ZM298.239 285.512C299.823 285.512 301.103 286.016 302.079 287.024C303.055 288.016 303.543 289.408 303.543 291.2V299H300.183V291.656C300.183 290.6 299.919 289.792 299.391 289.232C298.863 288.656 298.143 288.368 297.231 288.368C296.303 288.368 295.567 288.656 295.023 289.232C294.495 289.792 294.231 290.6 294.231 291.656V299H290.871V285.704H294.231V287.36C294.679 286.784 295.247 286.336 295.935 286.016C296.639 285.68 297.407 285.512 298.239 285.512ZM319.753 282.248C321.513 282.248 323.057 282.592 324.385 283.28C325.729 283.968 326.761 284.952 327.481 286.232C328.217 287.496 328.585 288.968 328.585 290.648C328.585 292.328 328.217 293.8 327.481 295.064C326.761 296.312 325.729 297.28 324.385 297.968C323.057 298.656 321.513 299 319.753 299H313.897V282.248H319.753ZM319.633 296.144C321.393 296.144 322.753 295.664 323.713 294.704C324.673 293.744 325.153 292.392 325.153 290.648C325.153 288.904 324.673 287.544 323.713 286.568C322.753 285.576 321.393 285.08 319.633 285.08H317.257V296.144H319.633ZM344.18 292.064C344.18 292.544 344.148 292.976 344.084 293.36H334.364C334.444 294.32 334.78 295.072 335.372 295.616C335.964 296.16 336.692 296.432 337.556 296.432C338.804 296.432 339.692 295.896 340.22 294.824H343.844C343.46 296.104 342.724 297.16 341.636 297.992C340.548 298.808 339.212 299.216 337.628 299.216C336.348 299.216 335.196 298.936 334.172 298.376C333.164 297.8 332.372 296.992 331.796 295.952C331.236 294.912 330.956 293.712 330.956 292.352C330.956 290.976 331.236 289.768 331.796 288.728C332.356 287.688 333.14 286.888 334.148 286.328C335.156 285.768 336.316 285.488 337.628 285.488C338.892 285.488 340.02 285.76 341.012 286.304C342.02 286.848 342.796 287.624 343.34 288.632C343.9 289.624 344.18 290.768 344.18 292.064ZM340.7 291.104C340.684 290.24 340.372 289.552 339.764 289.04C339.156 288.512 338.412 288.248 337.532 288.248C336.7 288.248 335.996 288.504 335.42 289.016C334.86 289.512 334.516 290.208 334.388 291.104H340.7ZM352.897 295.904L356.257 285.704H359.833L354.913 299H350.833L345.937 285.704H349.537L352.897 295.904ZM374.8 292.064C374.8 292.544 374.768 292.976 374.704 293.36H364.984C365.064 294.32 365.4 295.072 365.992 295.616C366.584 296.16 367.312 296.432 368.176 296.432C369.424 296.432 370.312 295.896 370.84 294.824H374.464C374.08 296.104 373.344 297.16 372.256 297.992C371.168 298.808 369.832 299.216 368.248 299.216C366.968 299.216 365.816 298.936 364.792 298.376C363.784 297.8 362.992 296.992 362.416 295.952C361.856 294.912 361.576 293.712 361.576 292.352C361.576 290.976 361.856 289.768 362.416 288.728C362.976 287.688 363.76 286.888 364.768 286.328C365.776 285.768 366.936 285.488 368.248 285.488C369.512 285.488 370.64 285.76 371.632 286.304C372.64 286.848 373.416 287.624 373.96 288.632C374.52 289.624 374.8 290.768 374.8 292.064ZM371.32 291.104C371.304 290.24 370.992 289.552 370.384 289.04C369.776 288.512 369.032 288.248 368.152 288.248C367.32 288.248 366.616 288.504 366.04 289.016C365.48 289.512 365.136 290.208 365.008 291.104H371.32ZM381.332 281.24V299H377.972V281.24H381.332ZM391.276 299.216C389.996 299.216 388.844 298.936 387.82 298.376C386.796 297.8 385.988 296.992 385.396 295.952C384.82 294.912 384.532 293.712 384.532 292.352C384.532 290.992 384.828 289.792 385.42 288.752C386.028 287.712 386.852 286.912 387.892 286.352C388.932 285.776 390.092 285.488 391.372 285.488C392.652 285.488 393.812 285.776 394.852 286.352C395.892 286.912 396.708 287.712 397.3 288.752C397.908 289.792 398.212 290.992 398.212 292.352C398.212 293.712 397.9 294.912 397.276 295.952C396.668 296.992 395.836 297.8 394.78 298.376C393.74 298.936 392.572 299.216 391.276 299.216ZM391.276 296.288C391.884 296.288 392.452 296.144 392.98 295.856C393.524 295.552 393.956 295.104 394.276 294.512C394.596 293.92 394.756 293.2 394.756 292.352C394.756 291.088 394.42 290.12 393.748 289.448C393.092 288.76 392.284 288.416 391.324 288.416C390.364 288.416 389.556 288.76 388.9 289.448C388.26 290.12 387.94 291.088 387.94 292.352C387.94 293.616 388.252 294.592 388.876 295.28C389.516 295.952 390.316 296.288 391.276 296.288ZM404.757 287.624C405.189 287.016 405.781 286.512 406.533 286.112C407.301 285.696 408.173 285.488 409.149 285.488C410.285 285.488 411.309 285.768 412.221 286.328C413.149 286.888 413.877 287.688 414.405 288.728C414.949 289.752 415.221 290.944 415.221 292.304C415.221 293.664 414.949 294.872 414.405 295.928C413.877 296.968 413.149 297.776 412.221 298.352C411.309 298.928 410.285 299.216 409.149 299.216C408.173 299.216 407.309 299.016 406.557 298.616C405.821 298.216 405.221 297.712 404.757 297.104V305.336H401.397V285.704H404.757V287.624ZM411.789 292.304C411.789 291.504 411.621 290.816 411.285 290.24C410.965 289.648 410.533 289.2 409.989 288.896C409.461 288.592 408.885 288.44 408.261 288.44C407.653 288.44 407.077 288.6 406.533 288.92C406.005 289.224 405.573 289.672 405.237 290.264C404.917 290.856 404.757 291.552 404.757 292.352C404.757 293.152 404.917 293.848 405.237 294.44C405.573 295.032 406.005 295.488 406.533 295.808C407.077 296.112 407.653 296.264 408.261 296.264C408.885 296.264 409.461 296.104 409.989 295.784C410.533 295.464 410.965 295.008 411.285 294.416C411.621 293.824 411.789 293.12 411.789 292.304ZM434.894 285.512C436.526 285.512 437.838 286.016 438.83 287.024C439.838 288.016 440.342 289.408 440.342 291.2V299H436.982V291.656C436.982 290.616 436.718 289.824 436.19 289.28C435.662 288.72 434.942 288.44 434.03 288.44C433.118 288.44 432.39 288.72 431.846 289.28C431.318 289.824 431.054 290.616 431.054 291.656V299H427.694V291.656C427.694 290.616 427.43 289.824 426.902 289.28C426.374 288.72 425.654 288.44 424.742 288.44C423.814 288.44 423.078 288.72 422.534 289.28C422.006 289.824 421.742 290.616 421.742 291.656V299H418.382V285.704H421.742V287.312C422.174 286.752 422.726 286.312 423.398 285.992C424.086 285.672 424.838 285.512 425.654 285.512C426.694 285.512 427.622 285.736 428.438 286.184C429.254 286.616 429.886 287.24 430.334 288.056C430.766 287.288 431.39 286.672 432.206 286.208C433.038 285.744 433.934 285.512 434.894 285.512ZM456.611 292.064C456.611 292.544 456.579 292.976 456.515 293.36H446.795C446.875 294.32 447.211 295.072 447.803 295.616C448.395 296.16 449.123 296.432 449.987 296.432C451.235 296.432 452.123 295.896 452.651 294.824H456.275C455.891 296.104 455.155 297.16 454.067 297.992C452.979 298.808 451.643 299.216 450.059 299.216C448.779 299.216 447.627 298.936 446.603 298.376C445.595 297.8 444.803 296.992 444.227 295.952C443.667 294.912 443.387 293.712 443.387 292.352C443.387 290.976 443.667 289.768 444.227 288.728C444.787 287.688 445.571 286.888 446.579 286.328C447.587 285.768 448.747 285.488 450.059 285.488C451.323 285.488 452.451 285.76 453.443 286.304C454.451 286.848 455.227 287.624 455.771 288.632C456.331 289.624 456.611 290.768 456.611 292.064ZM453.131 291.104C453.115 290.24 452.803 289.552 452.195 289.04C451.587 288.512 450.843 288.248 449.963 288.248C449.131 288.248 448.427 288.504 447.851 289.016C447.291 289.512 446.947 290.208 446.819 291.104H453.131ZM467.151 285.512C468.735 285.512 470.015 286.016 470.991 287.024C471.967 288.016 472.455 289.408 472.455 291.2V299H469.095V291.656C469.095 290.6 468.831 289.792 468.303 289.232C467.775 288.656 467.055 288.368 466.143 288.368C465.215 288.368 464.479 288.656 463.935 289.232C463.407 289.792 463.143 290.6 463.143 291.656V299H459.783V285.704H463.143V287.36C463.591 286.784 464.159 286.336 464.847 286.016C465.551 285.68 466.319 285.512 467.151 285.512ZM480.282 288.464V294.896C480.282 295.344 480.386 295.672 480.594 295.88C480.818 296.072 481.186 296.168 481.698 296.168H483.258V299H481.146C478.314 299 476.898 297.624 476.898 294.872V288.464H475.314V285.704H476.898V282.416H480.282V285.704H483.258V288.464H480.282Z" fill="black"/>
<rect y="327" width="753" height="12" rx="6" fill="#EDECEC"/>
<rect y="327" width="687" height="12" rx="6" fill="#F72585"/>
<g filter="url(#filter3_d_375_56)">
<circle cx="685" cy="333" r="16" fill="#EDECEC"/>
<circle cx="685" cy="333" r="14.5" stroke="#F72585" stroke-width="3"/>
</g>
<defs>
<filter id="filter0_d_375_56" x="662" y="41" width="46" height="46" filterUnits="userSpaceOnUse" color-interpolation-filters="sRGB">
<feFlood flood-opacity="0" result="BackgroundImageFix"/>
<feColorMatrix in="SourceAlpha" type="matrix" values="0 0 0 0 0 0 0 0 0 0 0 0 0 0 0 0 0 0 127 0" result="hardAlpha"/>
<feOffset dy="4"/>
<feGaussianBlur stdDeviation="3.5"/>
<feComposite in2="hardAlpha" operator="out"/>
<feColorMatrix type="matrix" values="0 0 0 0 0 0 0 0 0 0 0 0 0 0 0 0 0 0 0.2 0"/>
<feBlend mode="normal" in2="BackgroundImageFix" result="effect1_dropShadow_375_56"/>
<feBlend mode="normal" in="SourceGraphic" in2="effect1_dropShadow_375_56" result="shape"/>
</filter>
<filter id="filter1_d_375_56" x="630" y="132" width="46" height="46" filterUnits="userSpaceOnUse" color-interpolation-filters="sRGB">
<feFlood flood-opacity="0" result="BackgroundImageFix"/>
<feColorMatrix in="SourceAlpha" type="matrix" values="0 0 0 0 0 0 0 0 0 0 0 0 0 0 0 0 0 0 127 0" result="hardAlpha"/>
<feOffset dy="4"/>
<feGaussianBlur stdDeviation="3.5"/>
<feComposite in2="hardAlpha" operator="out"/>
<feColorMatrix type="matrix" values="0 0 0 0 0 0 0 0 0 0 0 0 0 0 0 0 0 0 0.2 0"/>
<feBlend mode="normal" in2="BackgroundImageFix" result="effect1_dropShadow_375_56"/>
<feBlend mode="normal" in="SourceGraphic" in2="effect1_dropShadow_375_56" result="shape"/>
</filter>
<filter id="filter2_d_375_56" x="694" y="223" width="46" height="46" filterUnits="userSpaceOnUse" color-interpolation-filters="sRGB">
<feFlood flood-opacity="0" result="BackgroundImageFix"/>
<feColorMatrix in="SourceAlpha" type="matrix" values="0 0 0 0 0 0 0 0 0 0 0 0 0 0 0 0 0 0 127 0" result="hardAlpha"/>
<feOffset dy="4"/>
<feGaussianBlur stdDeviation="3.5"/>
<feComposite in2="hardAlpha" operator="out"/>
<feColorMatrix type="matrix" values="0 0 0 0 0 0 0 0 0 0 0 0 0 0 0 0 0 0 0.2 0"/>
<feBlend mode="normal" in2="BackgroundImageFix" result="effect1_dropShadow_375_56"/>
<feBlend mode="normal" in="SourceGraphic" in2="effect1_dropShadow_375_56" result="shape"/>
</filter>
<filter id="filter3_d_375_56" x="662" y="314" width="46" height="46" filterUnits="userSpaceOnUse" color-interpolation-filters="sRGB">
<feFlood flood-opacity="0" result="BackgroundImageFix"/>
<feColorMatrix in="SourceAlpha" type="matrix" values="0 0 0 0 0 0 0 0 0 0 0 0 0 0 0 0 0 0 127 0" result="hardAlpha"/>
<feOffset dy="4"/>
<feGaussianBlur stdDeviation="3.5"/>
<feComposite in2="hardAlpha" operator="out"/>
<feColorMatrix type="matrix" values="0 0 0 0 0 0 0 0 0 0 0 0 0 0 0 0 0 0 0.2 0"/>
<feBlend mode="normal" in2="BackgroundImageFix" result="effect1_dropShadow_375_56"/>
<feBlend mode="normal" in="SourceGraphic" in2="effect1_dropShadow_375_56" result="shape"/>
</filter>
</defs>
</svg>